inDegrees=no
num_controls=7
num_derivatives=13
num_iterations=36
num_multipliers=7
num_parameters=0
num_slacks=7
num_states=26
objective=0.449399
objective_accelerations=0.054913
objective_balance=0.006068
objective_effort=0.036314
objective_height=0.347969
objective_ligament=0.004135
solver_duration=586.056018
status=Solve_Succeeded
success=true
DataType=double
version=3
OpenSimVersion=4.5
endheader
time	/jointset/ground_pelvis/pelvis_tilt/value	/jointset/ground_pelvis/pelvis_tx/value	/jointset/ground_pelvis/pelvis_ty/value	/jointset/hip_l/hip_flexion_l/value	/jointset/hip_l/hip_adduction_l/value	/jointset/hip_l/hip_rotation_l/value	/jointset/back/lumbar_extension/value	/jointset/patellofemoral_l/patellar_flexion_l/value	/jointset/knee_l/knee_flexion_l/value	/jointset/knee_l/knee_adduction_l/value	/jointset/knee_l/knee_rotation_l/value	/jointset/ankle_l/ankle_angle_l/value	/jointset/subtalar_l/subtalar_angle_l/value	/jointset/ground_pelvis/pelvis_tilt/speed	/jointset/ground_pelvis/pelvis_tx/speed	/jointset/ground_pelvis/pelvis_ty/speed	/jointset/hip_l/hip_flexion_l/speed	/jointset/hip_l/hip_adduction_l/speed	/jointset/hip_l/hip_rotation_l/speed	/jointset/back/lumbar_extension/speed	/jointset/patellofemoral_l/patellar_flexion_l/speed	/jointset/knee_l/knee_flexion_l/speed	/jointset/knee_l/knee_adduction_l/speed	/jointset/knee_l/knee_rotation_l/speed	/jointset/ankle_l/ankle_angle_l/speed	/jointset/subtalar_l/subtalar_angle_l/speed	/forceset/tau_hip_flexion_l	/forceset/tau_hip_adduction_l	/forceset/tau_hip_rotation_l	/forceset/tau_knee_flexion_l	/forceset/tau_ankle_angle_l	/forceset/tau_subtalar_angle_l	/forceset/tau_lumbar_extension	lambda_cid13_p0	lambda_cid13_p1	lambda_cid13_p2	lambda_cid13_p3	lambda_cid13_p4	lambda_cid13_p5	lambda_cid14_p0	/jointset/ground_pelvis/pelvis_tilt/accel	/jointset/ground_pelvis/pelvis_tx/accel	/jointset/ground_pelvis/pelvis_ty/accel	/jointset/hip_l/hip_flexion_l/accel	/jointset/hip_l/hip_adduction_l/accel	/jointset/hip_l/hip_rotation_l/accel	/jointset/back/lumbar_extension/accel	/jointset/patellofemoral_l/patellar_flexion_l/accel	/jointset/knee_l/knee_flexion_l/accel	/jointset/knee_l/knee_adduction_l/accel	/jointset/knee_l/knee_rotation_l/accel	/jointset/ankle_l/ankle_angle_l/accel	/jointset/subtalar_l/subtalar_angle_l/accel	gamma_cid13_p0	gamma_cid13_p1	gamma_cid13_p2	gamma_cid13_p3	gamma_cid13_p4	gamma_cid13_p5	gamma_cid14_p0
1	-0.5819677129191098	-0.08714567335423011	0.5824319553959482	1.925251457082365	-0.2722758827443483	0.164358260852999	-0.4357859012142903	1.354674220241074	1.354674220241288	-0.1334796705527309	0.1743251271105863	0.2218540014084111	0.02622692311332745	-0.008297263060206698	-0.003488077641786391	-0.006863077337954007	0.02687650065180571	-0.003024870903905465	0.006542070349806476	-0.009335299496502723	0.01297228691580445	0.01297228691581892	-0.007583253005812018	0.005904977775486545	-0.006119293310418569	-0.005546611280614896	-0.4102042717373823	0.03868404021903212	-0.009946299092779292	-0.3061585445202386	0.07935651666578955	-0.01308501184651136	0.3402876687242403	-22.30226103618372	12.36244483251625	-5.542658021088063	11.51942297061507	-737.1239037239735	-17.93475135205673	-0.04013714148286074	1.606746945155939	0.1649558492803163	1.891245527321481	-6.50641602636839	-0.3467250486525211	-1.662835036096101	0.01848031969730299	-5.298045474659859	-5.298045474659927	-0.09141785210342296	-0.2422277138502107	-0.6481818280547647	-0.5249982544316294	2.694576903803174e-09	6.517360979210902e-09	1.850693311102546e-08	-6.309305773796184e-09	4.974716169055197e-09	-1.775416866489712e-09	-1.798434198541517e-09
1.01	-0.5819709483557706	-0.08717239510435701	0.5824576768968956	1.925195989851818	-0.2723226316991285	0.1643401450135771	-0.4358776265237948	1.354539505218749	1.354539505218666	-0.1335584220894798	0.1743709709383133	0.2217605596423904	0.02614628912761931	0.007652789047083473	-0.00185969929215531	0.01199542681708285	-0.03793836545684989	-0.006323925456605018	-0.0100855307671859	-0.009009427471360609	-0.03988947385149642	-0.03988947385149846	-0.008236403112387984	0.003244119796221593	-0.01257585931858976	-0.01058075693190761	-0.4100862363630746	0.03877370551208659	-0.009947643223015027	-0.3057463349774081	0.07898454458564302	-0.0130427464203412	0.3401716341048416	-22.39625581797444	12.35331056183673	-5.532936287217495	11.64604292531545	-736.7046078785642	-17.89815695868241	-0.04014699833114276	1.589526033956419	0.1612648803945949	1.881359177351317	-6.46428512793582	-0.3213560226207945	-1.650773410119723	0.03969089732657764	-5.276366735029725	-5.276366735032506	-0.06266829289661227	-0.280978982905322	-0.6454122409501404	-0.4927155981433368	-1.440132174793007e-09	-1.798041000088717e-09	6.198840979932427e-08	3.696388022869724e-10	-5.277580817136689e-09	3.903637768190402e-08	-9.984955385439622e-09
1.02	-0.5818146049332931	-0.08718293586047171	0.5826716247029454	1.924493321315069	-0.2724023432722649	0.1641581430111683	-0.4359660830622155	1.353876947517297	1.353876947517028	-0.1336457860675987	0.1743896133581024	0.2216023485655245	0.02601529510986535	0.02361850877208621	-0.0002518788393496535	0.03078218368348563	-0.1025637605583887	-0.009617394571168439	-0.02623516230898547	-0.008681545309887378	-0.09259624890940282	-0.09259624890941939	-0.009305741337419897	0.0004646960993710032	-0.01907315547680479	-0.01561861768984357	-0.4099682009893736	0.03886337080562098	-0.00994898735266507	-0.3053341254344271	0.07861257250577801	-0.01300048099350784	0.3400555994847259	-22.49634297910161	12.3463969669192	-5.524886574220385	11.79761167573069	-736.3775368110907	-17.82421649410699	-0.04014778168059742	1.609880468697605	0.1608442699157455	1.876896069594845	-6.468521824945173	-0.3456079610251245	-1.56724112105752	0.01888234696907639	-5.267048332781043	-5.26704833278071	-0.1746554757944229	-0.265940857367627	-0.6563278580624856	-0.5257412757597976	-4.667581740029939e-09	-2.306394026698821e-08	6.234217952576685e-08	3.884453718227216e-11	-1.123109978096594e-08	4.247356510961918e-08	-1.324280588611175e-08
1.03	-0.5814993977140134	-0.08717749658239367	0.5830729804120348	1.923146229798257	-0.2725149856861474	0.1638153062103462	-0.4360499501361992	1.352687933622968	1.352687933621994	-0.1337443871012758	0.1743805123301322	0.2213787249332228	0.0258338284448887	0.03933515037821595	0.001336510371292455	0.04946664785146988	-0.166731445983397	-0.01291183783189871	-0.04242730528244349	-0.007957886709228821	-0.1451974560820981	-0.145197456082097	-0.01032755823836114	-0.002240441797605713	-0.02568231883231558	-0.02068204037834807	-0.4098351425208669	0.03900458521559221	-0.01001532960229508	-0.3048527931332287	0.07835524351072656	-0.0128864535672706	0.3400672609224427	-22.55295298408601	12.29488874086988	-5.50308426332622	11.84608908265726	-736.0499451086523	-17.81149697511792	-0.04017921240771413	1.53938714825268	0.1573525606877728	1.860871584541932	-6.372428896829496	-0.321482052144984	-1.659482594607702	0.1192050500004475	-5.255292518734523	-5.255292518732377	-0.0529200293590343	-0.26614623479118	-0.6678232714227181	-0.4977417601105179	-7.885773555130546e-09	-4.446198746539389e-08	6.225587060974128e-08	-3.634776752815277e-10	-1.714075366293433e-08	4.552937899528637e-08	-1.645036382876114e-08
1.04	-0.5810296578503577	-0.08715627014940146	0.5836605107616322	1.92116115402803	-0.2726605964413701	0.1633076916383337	-0.4361225611374259	1.350973180535068	1.350973180533467	-0.1338506013498134	0.1743456907279292	0.2210880871279195	0.02560150775408397	0.05452503765169803	0.002905552143486818	0.06801711178605319	-0.230160611230488	-0.01621106283476582	-0.05919071662064285	-0.006430330773006789	-0.1977440876236575	-0.1977440876236407	-0.01082838442385892	-0.004679418851681619	-0.03247599007289841	-0.02578942285549013	-0.4097020840524778	0.03914579962619135	-0.01008167185325121	-0.3043714608319051	0.07809791451590625	-0.01277242614017588	0.3400789223599763	-22.61577667743583	12.24555110923633	-5.482864540575336	11.92076414280511	-735.8152923939656	-17.7620368126945	-0.0402015925203577	1.504529602167249	0.1569747822268096	1.850096022914836	-6.320817789361875	-0.3465643094525754	-1.681494794006074	0.17966181408808	-5.25613320655382	-5.256133206553882	-0.07045733270560495	-0.2127086887871995	-0.6932294350757101	-0.5345332334871316	-9.361365308636827e-09	-4.060756695365406e-08	1.153807083977524e-07	4.750381324866978e-09	-2.453901736508349e-08	8.968891785514025e-08	-2.415715907317662e-08
1.05	-0.5804105404448997	-0.08711941690449225	0.5844327809135216	1.918545614391809	-0.2728390916315067	0.16263094803371	-0.4361761235933732	1.348733427999382	1.34873342799033	-0.1339602968237362	0.1742872911355608	0.2207285855352741	0.02531805353874851	0.06921555955322413	0.004464637408770063	0.08640457114684624	-0.2928043933647586	-0.01947329426276257	-0.07612143917425944	-0.004165749834720393	-0.2501789074799444	-0.2501789074799349	-0.01112428606101215	-0.00701103034660519	-0.03945603667500521	-0.03088996364467905	-0.4089921949321722	0.03935113962548801	-0.01016119380354962	-0.3038416420089171	0.07816441282351848	-0.01263865000945564	0.3396794954156708	-22.53998926847658	12.15993407069034	-5.452940023928933	11.86123645989164	-735.0757581388704	-17.74942057718227	-0.040247269617833	1.438879999559198	0.1553085468979073	1.828212304491037	-6.214721671001996	-0.3138733111652102	-1.693404108350465	0.2673178423847628	-5.233022981962608	-5.23302298196356	-0.01120812085416117	-0.2450073930431699	-0.705145656235343	-0.4961110457432403	-1.078250081021829e-08	-3.596400682597231e-08	1.701683945202643e-07	1.003662098790959e-08	-3.198380012411328e-08	1.351329481204373e-07	-3.200455548327225e-08
1.06	-0.5796470045173657	-0.08706698617728829	0.5853879539413837	1.91530792428529	-0.2730497732862794	0.161785988579532	-0.4362035479185474	1.345970153936602	1.345970153934396	-0.1340733616214926	0.1742052514261417	0.2202983327998832	0.02498393460669956	0.08340874207139305	0.006021048602434932	0.104597686981553	-0.3545907053207852	-0.02264835575870554	-0.0928338866203211	-0.00120270454896	-0.3024483916081446	-0.3024483916081372	-0.01150224936344913	-0.009407442369426772	-0.04662621861538632	-0.03592236619825746	-0.4082823058109263	0.0395564796256718	-0.01024071575692804	-0.3033118231858755	0.07823091113123183	-0.01250487387757201	0.3392800684723393	-22.47060076113046	12.07636162091998	-5.424397040379598	11.82970658649929	-734.4301438934054	-17.70178599616725	-0.04028414565144036	1.405061725494948	0.1564399679038199	1.811227317697746	-6.149323753713296	-0.3291303230420969	-1.637839772495641	0.3193546835885868	-5.223066060936342	-5.223066060935353	-0.08686966576227137	-0.2256687943660608	-0.7312565027292963	-0.5209055863651074	-1.321034262708912e-08	-3.205408359884442e-08	2.259955988651437e-07	1.7069891555241e-08	-4.016410092206992e-08	1.79494119619638e-07	-3.992045501887934e-08
